<svg width="221" height="100" viewBox="0 0 221 100" fill="none" xmlns="http://www.w3.org/2000/svg">
<g clip-path="url(#clip0_812_551)">
<path d="M56 34.2107L0 74H27.6281V70.6653H10.4812L52.6153 40.7276V48.6714H56V34.2107Z" fill="#D9916A"/>
<path d="M24.4954 16.5073L8.44043 25.6412V68.6341H11.8251V27.5672L21.1107 22.2845V30.3219H24.4954V16.5073Z" fill="#D9916A"/>
<path d="M15.8438 27.9146V63.188H19.2292V31.2499H32.6635V51.1861H36.0482V27.9146H15.8438Z" fill="#D9916A"/>
<path d="M28.125 0V29.6758H31.5097V8.8697L41.9431 20.6074V44.899H45.3271V19.3533L28.125 0Z" fill="#D9916A"/>
<path d="M33.4268 35.2537H26.5371V38.589H33.4268V35.2537Z" fill="#D9916A"/>
<path d="M33.4268 41.0264H26.5371V44.3617H33.4268V41.0264Z" fill="#D9916A"/>
<path d="M40.4219 58.1924V61.3938H43.6707V58.1924H40.4219ZM44.9448 58.1924V61.3938H48.1936V58.1924H44.9448ZM40.4219 62.2725V65.4739H43.6707V62.2725H40.4219ZM44.9448 62.2725V65.4739H48.1936V62.2725H44.9448Z" fill="#D9916A"/>
</g>
<path d="M73.2 63H77L79.5 54.1H94.3L96.8 63H100.6L91.1 28.4H82.7L73.2 63ZM85.6 31.7H88.2L93.45 50.65H80.35L85.6 31.7ZM105.385 63H109.135V44.65C109.135 44.65 113.535 42.2 118.235 41.25V37.45C113.435 38.4 109.085 41.4 109.085 41.4V38H105.385V63ZM126.42 63V51.55L130.37 51.4L137.82 63H142.07L133.57 49.5L141.72 38H137.47L130.32 48.1L126.42 48.3V27.1H122.67V63H126.42ZM146.596 63H150.346V38H146.596V63ZM146.596 32.35H150.346V28H146.596V32.35ZM170.484 41.25V38H162.534V30.35H158.834V38H155.284V41.25H158.834V54.4C158.834 61.6 160.584 63.55 165.734 63.55C167.484 63.55 170.834 63 170.834 63L170.584 59.9C170.584 59.9 167.534 60.2 166.134 60.2C162.884 60.2 162.534 58.65 162.534 53.2V41.25H170.484ZM184.313 60.2C179.413 60.2 177.763 57.4 177.763 52.05H194.263L194.463 49.2C194.463 41 191.063 37.5 184.413 37.5C178.063 37.5 173.963 41.15 173.963 50.65C173.963 59.15 176.413 63.5 183.863 63.5C187.913 63.5 193.613 62.7 193.613 62.7L193.513 59.75C193.513 59.75 188.063 60.2 184.313 60.2ZM177.713 49.05C177.763 43 180.163 40.65 184.413 40.65C188.813 40.65 190.713 42.85 190.713 49.05H177.713ZM204.057 63V51.55L208.007 51.4L215.457 63H219.707L211.207 49.5L219.357 38H215.107L207.957 48.1L204.057 48.3V27.1H200.307V63H204.057Z" fill="#262626"/>
<defs>
<clipPath id="clip0_812_551">
<rect width="56" height="74" fill="white"/>
</clipPath>
</defs>
</svg>
