<svg width="50" height="50" viewBox="0 0 50 50" fill="none" xmlns="http://www.w3.org/2000/svg">
<g clip-path="url(#clip0_139_432)">
<path d="M49.2188 40.625H48.4375V12.5734C48.4363 11.9327 48.1812 11.3186 47.7282 10.8656C47.2751 10.4125 46.661 10.1575 46.0203 10.1562H37.5V8.59375C37.5 8.46516 37.4683 8.33855 37.4076 8.22516C37.347 8.11178 37.2593 8.01511 37.1523 7.94375L25.4336 0.131245C25.3052 0.0455894 25.1543 -0.00012207 25 -0.00012207C24.8457 -0.00012207 24.6948 0.0455894 24.5664 0.131245L12.8477 7.94375C12.7407 8.01511 12.653 8.11178 12.5923 8.22516C12.5317 8.33855 12.5 8.46516 12.5 8.59375V10.1562H3.97969C3.33899 10.1575 2.72489 10.4125 2.27185 10.8656C1.8188 11.3186 1.56374 11.9327 1.5625 12.5734V40.625H0.78125C0.57405 40.625 0.375336 40.7073 0.228823 40.8538C0.08231 41.0003 0 41.199 0 41.4062C0.00268787 43.6846 0.908961 45.8689 2.52002 47.48C4.13108 49.091 6.31537 49.9973 8.59375 50H41.4062C43.6846 49.9973 45.8689 49.091 47.48 47.48C49.091 45.8689 49.9973 43.6846 50 41.4062C50 41.199 49.9177 41.0003 49.7712 40.8538C49.6247 40.7073 49.4259 40.625 49.2188 40.625ZM35.1562 35.9375H37.5C37.7072 35.9375 37.9059 35.8552 38.0524 35.7087C38.1989 35.5622 38.2812 35.3634 38.2812 35.1562C38.2812 34.949 38.1989 34.7503 38.0524 34.6038C37.9059 34.4573 37.7072 34.375 37.5 34.375H35.1562V32.8125H35.9375C36.1447 32.8125 36.3434 32.7302 36.4899 32.5837C36.6364 32.4372 36.7188 32.2384 36.7188 32.0312C36.7188 31.824 36.6364 31.6253 36.4899 31.4788C36.3434 31.3323 36.1447 31.25 35.9375 31.25H35.1562V29.6875H37.5C37.7072 29.6875 37.9059 29.6052 38.0524 29.4587C38.1989 29.3122 38.2812 29.1134 38.2812 28.9062C38.2812 28.699 38.1989 28.5003 38.0524 28.3538C37.9059 28.2073 37.7072 28.125 37.5 28.125H35.1562V26.5625H39.8438V38.2812H35.1562V35.9375ZM40.625 25H34.375C34.1678 25 33.9691 25.0823 33.8226 25.2288C33.6761 25.3753 33.5938 25.574 33.5938 25.7812V38.2812H32.3547L19.3023 25.2289C19.1931 25.1197 19.0539 25.0453 18.9024 25.0152C18.7508 24.985 18.5938 25.0005 18.4511 25.0596C18.3083 25.1187 18.1863 25.2188 18.1005 25.3473C18.0146 25.4757 17.9688 25.6268 17.9688 25.7812V38.2812H16.4062V31.25C16.4062 31.2398 16.4062 31.2305 16.4062 31.2203C16.4062 31.2102 16.4008 31.182 16.3984 31.1625C16.3901 31.0845 16.3695 31.0083 16.3375 30.9367C16.332 30.925 16.3375 30.9125 16.3281 30.9008C16.3188 30.8891 16.3203 30.8922 16.3172 30.8875C16.3143 30.879 16.3109 30.8706 16.307 30.8625L13.182 25.3937C13.108 25.2816 13.0073 25.1895 12.889 25.1258C12.7706 25.0621 12.6383 25.0288 12.5039 25.0288C12.3695 25.0288 12.2372 25.0621 12.1189 25.1258C12.0005 25.1895 11.8998 25.2816 11.8258 25.3937L8.70078 30.8625C8.69693 30.8706 8.69353 30.879 8.69062 30.8875C8.69062 30.8922 8.68281 30.8953 8.67969 30.9008C8.67656 30.9062 8.67578 30.925 8.67031 30.9367C8.63832 31.0083 8.61776 31.0845 8.60938 31.1625C8.60938 31.182 8.60234 31.2008 8.60156 31.2203C8.60078 31.2398 8.59375 31.2398 8.59375 31.25V38.2812H5.46875V14.0625H12.5V22.6562C12.5 22.8634 12.5823 23.0622 12.7288 23.2087C12.8753 23.3552 13.074 23.4375 13.2812 23.4375H22.6562C22.8635 23.4375 23.0622 23.3552 23.2087 23.2087C23.3552 23.0622 23.4375 22.8634 23.4375 22.6562V17.1875H26.5625V22.6562C26.5625 22.8634 26.6448 23.0622 26.7913 23.2087C26.9378 23.3552 27.1365 23.4375 27.3438 23.4375H36.7188C36.9259 23.4375 37.1247 23.3552 37.2712 23.2087C37.4177 23.0622 37.5 22.8634 37.5 22.6562V14.0625H44.5312V38.2812H41.4062V25.7812C41.4062 25.574 41.3239 25.3753 41.1774 25.2288C41.0309 25.0823 40.8322 25 40.625 25ZM28.4484 38.2812L22.4273 32.2602C22.3181 32.1509 22.1789 32.0765 22.0274 32.0464C21.8758 32.0163 21.7188 32.0318 21.5761 32.0909C21.4333 32.15 21.3113 32.2501 21.2255 32.3785C21.1396 32.507 21.0938 32.658 21.0938 32.8125V38.2812H19.5312V27.6672L30.1453 38.2812H28.4484ZM26.2391 38.2812H22.6562V34.6984L26.2391 38.2812ZM10.1562 38.2812V32.393C11.6796 32.8878 13.3204 32.8878 14.8438 32.393V38.2812H10.1562ZM11.0938 29.8156C12.0041 30.1348 12.9959 30.1348 13.9062 29.8156L14.507 30.8672C13.206 31.3086 11.7956 31.3086 10.4945 30.8672L11.0938 29.8156ZM11.8898 28.4227L12.5 27.3562L13.1094 28.4227C12.7083 28.514 12.2917 28.514 11.8906 28.4227H11.8898ZM14.0625 9.01171L25 1.71874L35.9375 9.01015V21.875H28.125V16.4062C28.125 16.199 28.0427 16.0003 27.8962 15.8538C27.7497 15.7073 27.551 15.625 27.3438 15.625H22.6562C22.449 15.625 22.2503 15.7073 22.1038 15.8538C21.9573 16.0003 21.875 16.199 21.875 16.4062V21.875H14.0625V9.01171ZM3.125 12.5734C3.125 12.3468 3.21505 12.1294 3.37533 11.9691C3.53562 11.8088 3.75301 11.7187 3.97969 11.7187H12.5V12.5H4.6875C4.4803 12.5 4.28159 12.5823 4.13507 12.7288C3.98856 12.8753 3.90625 13.074 3.90625 13.2812V39.0625C3.90625 39.2697 3.98856 39.4684 4.13507 39.6149C4.28159 39.7614 4.4803 39.8437 4.6875 39.8437H45.3125C45.5197 39.8437 45.7184 39.7614 45.8649 39.6149C46.0114 39.4684 46.0938 39.2697 46.0938 39.0625V13.2812C46.0938 13.074 46.0114 12.8753 45.8649 12.7288C45.7184 12.5823 45.5197 12.5 45.3125 12.5H37.5V11.7187H46.0203C46.247 11.7187 46.4644 11.8088 46.6247 11.9691C46.785 12.1294 46.875 12.3468 46.875 12.5734V40.625H3.125V12.5734ZM41.4062 48.4375H8.59375C6.86484 48.4354 5.19715 47.7972 3.90851 46.6446C2.61988 45.4919 1.8004 43.9055 1.60625 42.1875H48.3937C48.1996 43.9055 47.3801 45.4919 46.0915 46.6446C44.8028 47.7972 43.1352 48.4354 41.4062 48.4375Z" fill="#D9916A"/>
</g>
<defs>
<clipPath id="clip0_139_432">
<rect width="50" height="50" fill="white"/>
</clipPath>
</defs>
</svg>
