<svg width="50" height="50" viewBox="0 0 50 50" fill="none" xmlns="http://www.w3.org/2000/svg">
<g clip-path="url(#clip0_139_425)">
<path d="M47.5001 29.1674H45.0001V20.8344C44.9974 18.5343 43.1336 16.6705 40.8334 16.6678H27.5007C25.2005 16.6705 23.3367 18.5343 23.3341 20.8344V29.1674H20.834C19.4543 29.1689 18.3358 30.2873 18.3343 31.6675V40.0004C18.3408 42.1934 20.0482 44.0045 22.237 44.1403L21.0388 48.3333H13.2502C12.8516 46.3951 11.1469 45.0028 9.16788 45.0002H7.5013V6.6347C7.50244 4.0282 9.5173 1.86572 12.1173 1.6811C14.7173 1.49647 17.0179 3.35226 17.3875 5.93244L17.402 6.03352C16.3267 6.4764 15.7022 7.60551 15.8991 8.75141L16.1264 10.0968L13.8983 13.9232C13.5989 14.4378 13.5966 15.0729 13.8919 15.5898C14.1875 16.1067 14.7364 16.4267 15.3319 16.4294C15.4272 16.4294 15.5226 16.4214 15.6164 16.4053L23.611 15.0542C24.2484 14.9463 24.7661 14.4794 24.9392 13.8565C25.112 13.2335 24.9091 12.5667 24.4182 12.146L21.0564 9.26409L20.829 7.91869C20.6677 6.98068 19.9864 6.21624 19.0732 5.94808L19.0373 5.6967C18.5449 2.24985 15.4718 -0.230004 11.9991 0.0167992C8.52627 0.263602 5.83471 3.15314 5.83471 6.6347V45.0002H4.16812V44.167C4.16812 43.7066 3.79506 43.3336 3.33464 43.3336C2.8746 43.3336 2.50154 43.7066 2.50154 44.167V45.3534C0.985243 46.016 0.0045165 47.512 0.00146484 49.1668C0.00146484 49.6268 0.37453 49.9999 0.834949 49.9999H49.1667C49.6268 49.9999 49.9998 49.6268 49.9998 49.1668C49.9998 48.7064 49.6268 48.3333 49.1667 48.3333H47.2953L46.0971 44.1403C48.2859 44.0045 49.9934 42.1934 49.9998 40.0004V31.6675C49.9983 30.2873 48.8799 29.1689 47.5001 29.1674ZM23.3333 13.4109L15.3387 14.7624L17.5222 11.0127L20.0394 10.5874L23.3394 13.4094L23.3333 13.4109ZM19.3249 9.01767L17.6816 9.29537L17.5424 8.47371C17.4665 8.02015 17.7717 7.59063 18.2252 7.5132C18.2714 7.50557 18.3179 7.50175 18.3648 7.50175C18.7711 7.50252 19.1178 7.79548 19.1865 8.19601L19.3249 9.01767ZM27.5007 18.3344H40.8334C42.2135 18.3359 43.332 19.4543 43.3335 20.8344V29.3211C42.3375 29.6717 41.67 30.6112 41.6669 31.6675V33.3554C40.9498 32.8042 40.0713 32.5036 39.1668 32.5006H36.1789L38.0896 30.5898C38.4051 30.2629 38.4009 29.743 38.0793 29.4218C37.7577 29.1002 37.2382 29.0957 36.9113 29.4115L35.0006 31.3222V27.5008C35.0006 27.0404 34.6271 26.6673 34.1671 26.6673C33.707 26.6673 33.3336 27.0404 33.3336 27.5008V31.3222L31.4229 29.4115C31.096 29.0957 30.5764 29.1002 30.2548 29.4218C29.9333 29.743 29.9291 30.2629 30.2445 30.5898L32.1553 32.5006H29.1673C28.2629 32.5036 27.3844 32.8042 26.6672 33.3554V31.6675C26.6642 30.6112 25.9966 29.6717 25.0007 29.3211V20.8344C25.0022 19.4543 26.1206 18.3359 27.5007 18.3344ZM39.1668 34.1671C40.5469 34.1687 41.6654 35.2871 41.6669 36.6672V37.5003H26.6672V36.6672C26.6688 35.2871 27.7872 34.1687 29.1673 34.1671H39.1668ZM40.3501 44.167L42.7312 48.3333H25.6034L27.984 44.167H40.3501ZM41.6669 42.5001H26.6672V39.1669H41.6669V42.5001ZM20.0009 40.0004V31.6675C20.0013 31.2074 20.3743 30.8347 20.834 30.834H24.1675C24.6272 30.8347 25.0003 31.2074 25.0007 31.6675V42.5001H22.501C21.1208 42.4986 20.0024 41.3805 20.0009 40.0004ZM1.8111 48.3333C2.16509 47.3354 3.10882 46.6679 4.16812 46.6667H9.16788C10.2268 46.6679 11.1709 47.3354 11.5249 48.3333H1.8111ZM22.7722 48.3333L23.9627 44.167H26.0649L23.6842 48.3333H22.7722ZM44.6499 48.3333L42.2692 44.167H44.3714L45.562 48.3333H44.6499ZM48.3332 40.0004C48.3317 41.3805 47.2133 42.4986 45.8332 42.5001H43.3335V31.6675C43.3339 31.2074 43.7069 30.8347 44.1666 30.834H47.5001C47.9598 30.8347 48.3325 31.2074 48.3332 31.6675V40.0004Z" fill="#D9916A"/>
</g>
<defs>
<clipPath id="clip0_139_425">
<rect width="50" height="50" fill="white"/>
</clipPath>
</defs>
</svg>
