<svg width="50" height="50" viewBox="0 0 50 50" fill="none" xmlns="http://www.w3.org/2000/svg">
<path d="M48.9222 46.9822H4.95888C4.65221 46.9822 4.40332 46.7333 4.40332 46.4267C4.40332 46.12 4.65221 45.8711 4.95888 45.8711H48.3667V9.51779H8.7811C8.47443 9.51779 8.22554 9.2689 8.22554 8.96223C8.22554 8.65557 8.47443 8.40668 8.7811 8.40668H48.9222C49.2289 8.40668 49.4778 8.65557 49.4778 8.96223V46.4267C49.4778 46.7333 49.2289 46.9822 48.9222 46.9822Z" fill="#D9916A"/>
<path d="M8.78107 43.16C8.4744 43.16 8.22551 42.9111 8.22551 42.6045V7.56001C8.22551 5.75779 6.75996 4.29223 4.95773 4.29223C3.15551 4.29223 1.69107 5.7589 1.69107 7.56001V42.6033C1.69107 42.91 1.44218 43.1589 1.13551 43.1589C0.828845 43.1589 0.579956 42.91 0.579956 42.6033V7.56001C0.579956 5.14557 2.5444 3.18112 4.95885 3.18112C7.37329 3.18112 9.33773 5.14557 9.33773 7.56001V42.6033C9.33662 42.9111 9.08773 43.16 8.78107 43.16Z" fill="#D9916A"/>
<path d="M4.95885 46.9822C2.5444 46.9822 0.579956 45.0178 0.579956 42.6033C0.579956 40.1889 2.5444 38.2245 4.95885 38.2245C7.37329 38.2245 9.33773 40.1889 9.33773 42.6033C9.33773 42.91 9.08885 43.1589 8.78218 43.1589C8.47551 43.1589 8.22662 42.91 8.22662 42.6033C8.22662 40.8022 6.76107 39.3356 4.95885 39.3356C3.15662 39.3356 1.69107 40.8011 1.69107 42.6033C1.69107 44.4056 3.15662 45.8711 4.95885 45.8711C5.26551 45.8711 5.5144 46.12 5.5144 46.4267C5.5144 46.7333 5.26551 46.9822 4.95885 46.9822Z" fill="#D9916A"/>
<path d="M31.2122 42.0234H14.0066C13.6999 42.0234 13.451 41.7745 13.451 41.4678V35.9556C13.451 33.2278 15.8599 31.0089 18.8199 31.0089H20.2722C20.4122 31.0089 20.5477 31.0622 20.6511 31.1578L22.6099 32.9822L24.5688 31.1578C24.6722 31.0622 24.8066 31.0089 24.9477 31.0089H26.3999C29.3599 31.0089 31.7688 33.2278 31.7688 35.9556V41.4678C31.7677 41.7745 31.5188 42.0234 31.2122 42.0234ZM14.5622 40.9122H30.6566V35.9556C30.6566 33.84 28.7466 32.12 26.3988 32.12H25.1655L22.9888 34.1478C22.7755 34.3467 22.4444 34.3467 22.2311 34.1478L20.0544 32.12H18.8211C16.4733 32.12 14.5633 33.8411 14.5633 35.9556V40.9122H14.5622Z" fill="#D9916A"/>
<path d="M18.541 42.0233C18.2344 42.0233 17.9855 41.7745 17.9855 41.4678V31.5711C17.9855 31.2645 18.2344 31.0156 18.541 31.0156C18.8477 31.0156 19.0966 31.2645 19.0966 31.5711V41.4678C19.0966 41.7745 18.8477 42.0233 18.541 42.0233Z" fill="#D9916A"/>
<path d="M26.6777 42.0233C26.3711 42.0233 26.1222 41.7745 26.1222 41.4678V31.5711C26.1222 31.2645 26.3711 31.0156 26.6777 31.0156C26.9844 31.0156 27.2333 31.2645 27.2333 31.5711V41.4678C27.2333 41.7745 26.9844 42.0233 26.6777 42.0233Z" fill="#D9916A"/>
<path d="M20.2722 32.1189C19.9656 32.1189 19.7167 31.87 19.7167 31.5633V29.68C19.7167 29.3733 19.9656 29.1245 20.2722 29.1245C20.5789 29.1245 20.8278 29.3733 20.8278 29.68V31.5633C20.8278 31.87 20.5789 32.1189 20.2722 32.1189Z" fill="#D9916A"/>
<path d="M24.9467 32.1189C24.64 32.1189 24.3911 31.87 24.3911 31.5633V29.7344C24.3911 29.4278 24.64 29.1789 24.9467 29.1789C25.2533 29.1789 25.5022 29.4278 25.5022 29.7344V31.5633C25.5022 31.87 25.2533 32.1189 24.9467 32.1189Z" fill="#D9916A"/>
<path d="M22.61 31.2289C20.4267 31.2289 18.0367 29.1978 17.9467 24.7378C17.94 24.4311 18.1844 24.1778 18.4911 24.1711C18.7989 24.17 19.0511 24.4089 19.0578 24.7156C19.1333 28.4278 20.9522 30.1189 22.61 30.1189C24.2678 30.1189 26.0867 28.4278 26.1611 24.7156C26.1667 24.4122 26.4144 24.1711 26.7167 24.1711H26.7278C27.0344 24.1778 27.2778 24.4311 27.2722 24.7378C27.1833 29.1978 24.7933 31.2289 22.61 31.2289Z" fill="#D9916A"/>
<path d="M22.6089 42.0234C22.3022 42.0234 22.0533 41.7745 22.0533 41.4678V33.7411C22.0533 33.4345 22.3022 33.1856 22.6089 33.1856C22.9156 33.1856 23.1645 33.4345 23.1645 33.7411V41.4678C23.1645 41.7745 22.9167 42.0234 22.6089 42.0234Z" fill="#D9916A"/>
<path d="M18.2578 23.4078C18.0178 23.4078 17.7967 23.2511 17.7256 23.0089C17.0044 20.5533 18.4856 17.9911 21.0978 17.1756C21.3911 17.0844 21.7022 17.2478 21.7933 17.54C21.8844 17.8322 21.7211 18.1444 21.4289 18.2356C19.4022 18.8689 18.2433 20.8278 18.7922 22.6956C18.8789 22.99 18.71 23.2989 18.4156 23.3856C18.3622 23.4 18.31 23.4078 18.2578 23.4078ZM27.3011 23.4078C27.2489 23.4078 27.1967 23.4 27.1444 23.3856C26.85 23.2989 26.6811 22.99 26.7678 22.6956C27.3167 20.8278 26.1578 18.8689 24.1311 18.2356C23.8378 18.1444 23.6756 17.8322 23.7667 17.54C23.8578 17.2478 24.17 17.0833 24.4622 17.1756C27.0744 17.9911 28.5556 20.5533 27.8344 23.0089C27.7633 23.25 27.5422 23.4078 27.3011 23.4078Z" fill="#D9916A"/>
<path d="M28.1233 25.2822H17.4367C17.13 25.2822 16.8811 25.0334 16.8811 24.7267V22.8522C16.8811 22.5456 17.13 22.2967 17.4367 22.2967H28.1233C28.43 22.2967 28.6789 22.5456 28.6789 22.8522V24.7267C28.6789 25.0334 28.43 25.2822 28.1233 25.2822ZM17.9922 24.1711H27.5678V23.4078H17.9922V24.1711Z" fill="#D9916A"/>
<path d="M23.9544 23.4067C23.9421 23.4067 23.9299 23.4067 23.9166 23.4056C23.6099 23.3856 23.3788 23.12 23.3988 22.8144L23.7744 17.1767H21.7833L22.1588 22.8144C22.1788 23.1211 21.9477 23.3856 21.641 23.4056C21.3355 23.4267 21.0699 23.1944 21.0499 22.8878L20.6344 16.6578C20.6244 16.5044 20.6777 16.3533 20.7833 16.2411C20.8888 16.1289 21.0355 16.0656 21.1888 16.0656H24.3677C24.521 16.0656 24.6688 16.1289 24.7733 16.2411C24.8788 16.3533 24.9321 16.5044 24.9221 16.6578L24.5077 22.8889C24.4888 23.1822 24.2444 23.4067 23.9544 23.4067Z" fill="#D9916A"/>
<path d="M18.541 39.8278H14.0066C13.6999 39.8278 13.451 39.5789 13.451 39.2722C13.451 38.9656 13.6999 38.7167 14.0066 38.7167H18.541C18.8477 38.7167 19.0966 38.9656 19.0966 39.2722C19.0966 39.5789 18.8477 39.8278 18.541 39.8278Z" fill="#D9916A"/>
<path d="M18.541 37.8344H14.0066C13.6999 37.8344 13.451 37.5855 13.451 37.2789C13.451 36.9722 13.6999 36.7233 14.0066 36.7233H18.541C18.8477 36.7233 19.0966 36.9722 19.0966 37.2789C19.0966 37.5855 18.8477 37.8344 18.541 37.8344Z" fill="#D9916A"/>
<path d="M31.2122 39.8278H26.6777C26.3711 39.8278 26.1222 39.5789 26.1222 39.2722C26.1222 38.9656 26.3711 38.7167 26.6777 38.7167H31.2122C31.5189 38.7167 31.7677 38.9656 31.7677 39.2722C31.7677 39.5789 31.5189 39.8278 31.2122 39.8278Z" fill="#D9916A"/>
<path d="M31.2122 37.8344H26.6777C26.3711 37.8344 26.1222 37.5855 26.1222 37.2789C26.1222 36.9722 26.3711 36.7233 26.6777 36.7233H31.2122C31.5189 36.7233 31.7677 36.9722 31.7677 37.2789C31.7677 37.5855 31.5189 37.8344 31.2122 37.8344Z" fill="#D9916A"/>
<path d="M33.8466 25.1389C32.041 25.1389 30.5721 23.67 30.5721 21.8656C30.5721 20.0611 32.041 18.5911 33.8466 18.5911C35.6521 18.5911 37.121 20.06 37.121 21.8656C37.121 23.6711 35.6521 25.1389 33.8466 25.1389ZM33.8466 19.7022C32.6544 19.7022 31.6833 20.6722 31.6833 21.8656C31.6833 23.0589 32.6533 24.0289 33.8466 24.0289C35.0399 24.0289 36.0099 23.0589 36.0099 21.8656C36.0099 20.6722 35.0399 19.7022 33.8466 19.7022Z" fill="#D9916A"/>
<path d="M43.6966 36.6489H37.8011C37.4944 36.6489 37.2455 36.4 37.2455 36.0933C37.2455 35.7867 37.4944 35.5378 37.8011 35.5378H43.1411V21.82L33.8466 14.6244L27.0599 19.8789C26.8177 20.0667 26.4688 20.0222 26.2811 19.78C26.0933 19.5378 26.1377 19.1889 26.3799 19.0011L33.5077 13.4833C33.7077 13.3278 33.9877 13.3278 34.1877 13.4833L44.0377 21.1089C44.1733 21.2144 44.2533 21.3767 44.2533 21.5478V36.0933C44.2522 36.4 44.0044 36.6489 43.6966 36.6489Z" fill="#D9916A"/>
<path d="M37.8011 36.6489H31.2122C30.9055 36.6489 30.6567 36.4 30.6567 36.0933C30.6567 35.7867 30.9055 35.5378 31.2122 35.5378H37.2455V28.8111H30.4489V32.9422C30.4489 33.2489 30.2 33.4978 29.8933 33.4978C29.5867 33.4978 29.3378 33.2489 29.3378 32.9422V28.2556C29.3378 27.9489 29.5867 27.7 29.8933 27.7H37.8022C38.1089 27.7 38.3578 27.9489 38.3578 28.2556V36.0933C38.3567 36.4 38.1078 36.6489 37.8011 36.6489Z" fill="#D9916A"/>
</svg>
