<svg width="50" height="50" viewBox="0 0 50 50" fill="none" xmlns="http://www.w3.org/2000/svg">
<g clip-path="url(#clip0_139_417)">
<path d="M10.9375 46.7335C12.6633 46.7335 14.0625 45.3346 14.0625 43.6085C14.0625 41.8827 12.6633 40.4835 10.9375 40.4835C9.21173 40.4835 7.8125 41.8827 7.8125 43.6085C7.8125 45.3346 9.21173 46.7335 10.9375 46.7335ZM10.9375 42.046C11.8004 42.046 12.5 42.7456 12.5 43.6085C12.5 44.4713 11.8004 45.171 10.9375 45.171C10.0746 45.171 9.375 44.4713 9.375 43.6085C9.375 42.7456 10.0746 42.046 10.9375 42.046Z" fill="#fff"/>
<path d="M45.3125 48.296V19.7437L25 6.74362L7.47108 17.9619L7.05528 14.8369C7.93839 14.3181 8.62846 13.5262 9.021 12.5805L25 2.34909L48.7976 17.5789L49.6399 16.2647L25 0.493622L9.36089 10.5053C9.21097 5.71785 5.45235 1.11961 5.28908 0.922775L4.6875 0.195312L4.08669 0.924301C3.91808 1.12648 0 5.933 0 10.796C0.00267029 12.458 0.88501 13.9946 2.31972 14.8342L0.788116 26.3187L0.78125 49.8585H2.34375V27.2023H7.03125V36.647L5.79834 37.3585H3.90625V49.8585H41.4062V37.3585H39.7243L37.6064 29.4804L35.9375 29.9274V18.6085H14.0625V32.5874L8.59375 35.7452V26.421L7.69768 19.672L25 8.59833L43.75 20.5986V49.8585H50V48.296H45.3125ZM2.45476 25.6397L3.82042 15.3999C4.39301 15.5113 4.98199 15.5113 5.55458 15.3999L6.92024 25.6397H2.45476ZM5.46875 13.81V10.796H3.90625V13.81C2.53067 13.4548 1.56784 12.2166 1.5625 10.796C1.5625 7.57751 3.6335 4.22325 4.6875 2.72484C5.74379 4.21867 7.8125 7.56111 7.8125 10.796C7.80716 12.2166 6.84433 13.4548 5.46875 13.81ZM24.2188 48.296H17.9688V38.921H24.2188V48.296ZM32.0312 48.296H25.7812V38.921H32.0312V48.296ZM39.8438 38.921V48.296H33.5938V38.921H39.8438ZM36.5032 31.3938L38.1062 37.3585H14.2517L36.5032 31.3938ZM25.7812 20.171H34.375V27.7054L31.411 22.5727L25.7812 25.8228V20.171ZM15.625 20.171H24.2188V26.421H15.625V20.171ZM15.625 27.9835H22.0375L15.625 31.686V27.9835ZM30.8392 24.707L34.1328 30.41L9.53674 37.0056L30.8392 24.707ZM16.4062 38.921V48.296H5.46875V38.921H16.4062Z" fill="#fff"/>
</g>
<defs>
<clipPath id="clip0_139_417">
<rect width="50" height="50" fill="white"/>
</clipPath>
</defs>
</svg>
