<svg width="50" height="50" viewBox="0 0 50 50" fill="none" xmlns="http://www.w3.org/2000/svg">
<g clip-path="url(#clip0_812_428)">
<path d="M47.5006 29.1674H45.0006V20.8344C44.9979 18.5342 43.1341 16.6704 40.8339 16.6678H27.5012C25.201 16.6704 23.3372 18.5342 23.3346 20.8344V29.1674H20.8345C19.4548 29.1689 18.3363 30.2873 18.3348 31.6674V40.0004C18.3413 42.1934 20.0487 44.0045 22.2375 44.1403L21.0393 48.3333H13.2507C12.8521 46.3951 11.1474 45.0028 9.16837 45.0001H7.50179V6.63469C7.50293 4.02819 9.51779 1.86571 12.1178 1.68108C14.7178 1.49646 17.0184 3.35225 17.388 5.93242L17.4025 6.03351C16.3272 6.47638 15.7027 7.6055 15.8996 8.75139L16.1269 10.0968L13.8988 13.9232C13.5994 14.4378 13.5971 15.0729 13.8923 15.5898C14.188 16.1067 14.7369 16.4267 15.3323 16.4294C15.4277 16.4294 15.5231 16.4214 15.6169 16.4053L23.6115 15.0542C24.2489 14.9463 24.7665 14.4794 24.9397 13.8564C25.1125 13.2335 24.9096 12.5667 24.4187 12.146L21.0569 9.26407L20.8295 7.91867C20.6682 6.98067 19.9869 6.21623 19.0737 5.94806L19.0378 5.69668C18.5454 2.24984 15.4723 -0.230019 11.9995 0.016784C8.52676 0.263587 5.8352 3.15313 5.8352 6.63469V45.0001H4.16861V44.167C4.16861 43.7066 3.79555 43.3335 3.33513 43.3335C2.87509 43.3335 2.50202 43.7066 2.50202 44.167V45.3534C0.985731 46.016 0.00500478 47.512 0.00195312 49.1668C0.00195312 49.6268 0.375018 49.9999 0.835437 49.9999H49.1672C49.6273 49.9999 50.0003 49.6268 50.0003 49.1668C50.0003 48.7064 49.6273 48.3333 49.1672 48.3333H47.2958L46.0976 44.1403C48.2864 44.0045 49.9938 42.1934 50.0003 40.0004V31.6674C49.9988 30.2873 48.8804 29.1689 47.5006 29.1674ZM23.3338 13.4109L15.3392 14.7624L17.5227 11.0127L20.0399 10.5873L23.3399 13.4094L23.3338 13.4109ZM19.3254 9.01765L17.6821 9.29535L17.5429 8.47369C17.467 8.02014 17.7721 7.59062 18.2257 7.51318C18.2719 7.50555 18.3184 7.50174 18.3653 7.50174C18.7716 7.5025 19.1183 7.79546 19.187 8.19599L19.3254 9.01765ZM27.5012 18.3344H40.8339C42.214 18.3359 43.3325 19.4543 43.334 20.8344V29.3211C42.338 29.6717 41.6704 30.6112 41.6674 31.6674V33.3554C40.9502 32.8042 40.0718 32.5036 39.1673 32.5005H36.1794L38.0901 30.5898C38.4055 30.2629 38.4014 29.743 38.0798 29.4218C37.7582 29.1002 37.2387 29.0957 36.9118 29.4115L35.001 31.3222V27.5008C35.001 27.0404 34.6276 26.6673 34.1676 26.6673C33.7075 26.6673 33.3341 27.0404 33.3341 27.5008V31.3222L31.4234 29.4115C31.0964 29.0957 30.5769 29.1002 30.2553 29.4218C29.9338 29.743 29.9296 30.2629 30.245 30.5898L32.1558 32.5005H29.1678C28.2634 32.5036 27.3849 32.8042 26.6677 33.3554V31.6674C26.6647 30.6112 25.9971 29.6717 25.0011 29.3211V20.8344C25.0027 19.4543 26.1211 18.3359 27.5012 18.3344ZM39.1673 34.1671C40.5474 34.1687 41.6659 35.2871 41.6674 36.6672V37.5003H26.6677V36.6672C26.6693 35.2871 27.7877 34.1687 29.1678 34.1671H39.1673ZM40.3506 44.167L42.7317 48.3333H25.6038L27.9845 44.167H40.3506ZM41.6674 42.5001H26.6677V39.1669H41.6674V42.5001ZM20.0014 40.0004V31.6674C20.0018 31.2074 20.3748 30.8347 20.8345 30.834H24.168C24.6277 30.8347 25.0008 31.2074 25.0011 31.6674V42.5001H22.5014C21.1213 42.4985 20.0029 41.3805 20.0014 40.0004ZM1.81159 48.3333C2.16558 47.3354 3.1093 46.6679 4.16861 46.6667H9.16837C10.2273 46.6679 11.1714 47.3354 11.5254 48.3333H1.81159ZM22.7727 48.3333L23.9632 44.167H26.0654L23.6847 48.3333H22.7727ZM44.6504 48.3333L42.2697 44.167H44.3719L45.5625 48.3333H44.6504ZM48.3337 40.0004C48.3322 41.3805 47.2138 42.4985 45.8337 42.5001H43.334V31.6674C43.3344 31.2074 43.7074 30.8347 44.1671 30.834H47.5006C47.9603 30.8347 48.333 31.2074 48.3337 31.6674V40.0004Z" fill="white"/>
</g>
<defs>
<clipPath id="clip0_812_428">
<rect width="50" height="50" fill="white"/>
</clipPath>
</defs>
</svg>
